<?xml version="1.0" standalone="no"?>
<!DOCTYPE svg PUBLIC "-//W3C//DTD SVG 20010904//EN"
 "http://www.w3.org/TR/2001/REC-SVG-20010904/DTD/svg10.dtd">
<svg version="1.0" xmlns="http://www.w3.org/2000/svg"
 width="512.000000pt" height="512.000000pt" viewBox="0 0 512.000000 512.000000"
 preserveAspectRatio="xMidYMid meet">
<metadata>
Created by potrace 1.11, written by Peter Selinger 2001-2013
</metadata>
<g transform="translate(0.000000,512.000000) scale(0.100000,-0.100000)"
fill="#000000" stroke="none">
<path d="M969 5063 c0 -21 0 -378 -1 -793 l0 -755 311 -3 311 -2 1 -28 c3
-105 0 -240 -6 -280 -4 -26 -8 -103 -10 -172 -2 -69 -5 -192 -7 -275 -2 -82
-6 -155 -10 -160 -4 -6 -6 -74 -6 -152 1 -77 -2 -145 -6 -151 -4 -6 -7 -77 -7
-156 0 -80 -4 -148 -8 -150 -3 -2 -6 -72 -5 -155 0 -83 -3 -151 -7 -151 -3 0
-7 -68 -8 -151 -1 -83 -4 -155 -7 -161 -3 -5 -5 -74 -5 -153 l0 -145 -424 0
-425 0 0 -530 0 -530 1910 0 1910 0 0 530 0 530 -425 0 -426 0 3 150 c2 83 -1
151 -6 153 -4 1 -8 71 -8 155 -1 84 -4 152 -8 152 -3 0 -6 68 -6 151 1 83 -2
153 -6 155 -4 3 -7 70 -7 149 0 80 -3 150 -6 156 -4 6 -7 75 -7 155 1 79 -3
146 -7 148 -4 3 -7 72 -6 155 0 83 -3 151 -6 151 -4 0 -8 62 -9 138 -1 75 -4
212 -7 305 l-4 167 310 0 311 0 1 360 c0 198 0 484 0 635 0 151 0 347 0 435
l-1 160 -317 -2 -318 -3 -1 -300 c-1 -165 -2 -307 -3 -315 -1 -14 -39 -16
-310 -15 -170 0 -313 3 -317 7 -4 4 -7 147 -7 318 l0 310 -317 0 -317 0 -1
-297 c0 -164 -1 -307 -1 -319 -1 -21 -3 -21 -318 -20 l-318 1 0 315 0 315
-317 3 -318 2 -1 -37z"/>
</g>
</svg>
